<?xml version="1.0" standalone="no"?>
<!DOCTYPE svg PUBLIC "-//W3C//DTD SVG 20010904//EN"
 "http://www.w3.org/TR/2001/REC-SVG-20010904/DTD/svg10.dtd">
<svg version="1.0" xmlns="http://www.w3.org/2000/svg"
 width="261.000000pt" height="261.000000pt" viewBox="0 0 261.000000 261.000000"
 preserveAspectRatio="xMidYMid meet">
<metadata>
Created by potrace 1.14, written by Peter Selinger 2001-2017
</metadata>
<g transform="translate(0.000000,261.000000) scale(0.100000,-0.100000)"
fill="#000000" stroke="none">
<path d="M1243 2599 c-194 -36 -302 -257 -212 -434 31 -60 86 -112 146 -137
58 -24 57 -21 53 -133 -2 -50 -11 -65 -42 -65 -31 0 -127 -41 -177 -74 l-49
-33 -58 58 -57 58 23 48 c33 66 33 177 1 246 -110 240 -454 234 -558 -10 -24
-57 -22 -176 4 -233 26 -58 86 -121 143 -151 63 -33 205 -34 266 -2 l41 22 57
-58 57 -58 -38 -69 c-21 -38 -45 -98 -54 -134 l-15 -65 -88 -1 c-72 0 -89 3
-93 15 -72 229 -362 292 -519 113 -49 -55 -69 -113 -69 -197 0 -87 22 -146 74
-204 111 -122 304 -130 429 -16 40 35 92 126 92 159 0 13 15 16 88 16 l88 0
13 -62 c7 -35 30 -96 52 -137 l40 -75 -64 -64 -64 -64 -34 18 c-42 21 -151 30
-205 15 -148 -40 -249 -205 -215 -354 49 -220 306 -310 488 -171 107 82 140
259 71 383 -21 38 -22 36 56 113 l49 48 31 -23 c42 -31 116 -65 179 -81 60
-15 64 -22 59 -130 l-4 -74 -43 -16 c-130 -50 -211 -205 -180 -346 29 -133
155 -233 295 -233 166 -1 299 131 301 297 0 64 -5 86 -33 142 -36 72 -141 154
-198 154 -11 0 -21 6 -21 13 -4 38 -3 177 1 178 3 0 19 3 35 5 57 9 150 44
195 74 l45 30 64 -64 64 -64 -23 -49 c-33 -69 -33 -179 0 -248 29 -59 84 -116
142 -147 36 -19 59 -23 133 -23 81 0 95 3 144 30 215 119 209 420 -12 537 -60
32 -203 33 -263 1 l-41 -22 -63 64 -64 65 21 28 c45 61 93 178 93 230 0 21 3
22 88 22 l88 0 17 -54 c22 -70 83 -137 155 -173 48 -24 69 -28 132 -27 121 2
218 63 272 171 33 67 32 187 -1 255 -51 104 -144 166 -259 172 -126 7 -238
-61 -289 -174 l-25 -57 -84 0 c-47 0 -86 3 -88 6 -2 3 -7 22 -10 41 -9 56 -41
134 -75 183 -17 25 -31 48 -31 50 0 3 25 30 55 60 l56 55 42 -23 c90 -50 206
-47 297 7 56 32 81 60 113 120 75 142 20 322 -123 402 -50 28 -63 31 -145 31
-105 0 -145 -15 -211 -80 -84 -84 -112 -216 -69 -328 l18 -48 -58 -59 c-55
-56 -60 -59 -80 -45 -46 34 -121 67 -188 84 l-72 17 0 65 c-1 84 3 99 29 99
35 0 122 56 158 102 47 58 68 115 69 190 4 185 -174 332 -358 297z m150 -130
c81 -43 118 -149 82 -237 -31 -72 -84 -110 -163 -116 -149 -12 -252 155 -175
285 20 34 79 77 113 84 12 2 24 6 27 8 6 7 91 -11 116 -24z m-694 -302 c98
-65 112 -208 28 -290 -135 -133 -357 -11 -316 174 30 130 177 189 288 116z
m1387 14 c110 -50 142 -190 67 -290 -76 -99 -240 -89 -309 20 -99 157 72 347
242 270z m-678 -466 c267 -77 386 -373 245 -613 -45 -78 -122 -141 -218 -177
-66 -26 -200 -26 -270 0 -199 71 -314 276 -268 478 53 234 286 376 511 312z
m-1037 -234 c42 -13 91 -63 109 -109 7 -19 11 -55 8 -87 -11 -132 -160 -210
-277 -145 -146 83 -121 305 40 348 41 10 73 9 120 -7z m2008 -6 c95 -49 133
-160 88 -255 -53 -112 -221 -139 -303 -48 -76 82 -73 197 5 272 54 52 145 65
210 31z m-1677 -721 c119 -84 105 -266 -26 -325 -183 -83 -350 129 -229 290
58 76 175 92 255 35z m1389 13 c128 -68 139 -238 20 -322 -36 -26 -52 -30
-105 -30 -78 0 -134 33 -167 98 -84 164 90 339 252 254z m-705 -290 c136 -71
134 -272 -3 -338 -189 -92 -363 144 -220 300 51 55 156 73 223 38z"/>
</g>
</svg>
